<svg width="25" height="25" viewBox="0 0 25 25" fill="none" xmlns="http://www.w3.org/2000/svg">
<path d="M8.33433 12.5C8.33433 10.1989 10.1993 8.333 12.5005 8.333C14.8017 8.333 16.6677 10.1989 16.6677 12.5C16.6677 14.8011 14.8017 16.667 12.5005 16.667C10.1993 16.667 8.33433 14.8011 8.33433 12.5ZM6.08164 12.5C6.08164 16.045 8.95536 18.9186 12.5005 18.9186C16.0456 18.9186 18.9194 16.045 18.9194 12.5C18.9194 8.955 16.0456 6.0814 12.5005 6.0814C8.95536 6.0814 6.08164 8.955 6.08164 12.5ZM17.6735 5.8269C17.6733 6.12358 17.7612 6.41361 17.9258 6.66036C18.0906 6.9071 18.3249 7.09945 18.5989 7.21309C18.8729 7.32673 19.1745 7.35656 19.4655 7.2988C19.7565 7.24104 20.0239 7.09827 20.2337 6.88859C20.4436 6.67889 20.5866 6.41168 20.6446 6.12073C20.7026 5.82978 20.673 5.52816 20.5596 5.25402C20.4462 4.9799 20.2539 4.74555 20.0073 4.58063C19.7608 4.41571 19.4708 4.32762 19.174 4.3275C18.7763 4.32769 18.3945 4.4857 18.1132 4.76684C17.832 5.04796 17.6737 5.42924 17.6735 5.8269ZM7.4503 22.6747C6.23155 22.6192 5.56912 22.4162 5.12891 22.2447C4.54528 22.0175 4.12887 21.7469 3.69105 21.3097C3.25323 20.8725 2.98222 20.4565 2.75601 19.8729C2.5844 19.4329 2.3814 18.7702 2.32599 17.5516C2.26539 16.234 2.25329 15.8382 2.25329 12.5001C2.25329 9.162 2.26639 8.7673 2.32599 7.4486C2.3815 6.2299 2.586 5.5686 2.75601 5.1273C2.98322 4.5437 3.25383 4.1273 3.69105 3.6895C4.12827 3.2517 4.54428 2.9807 5.12891 2.7545C5.56892 2.5829 6.23155 2.3799 7.4503 2.3245C8.76795 2.2639 9.16377 2.2518 12.5005 2.2518C15.8373 2.2518 16.2334 2.2649 17.5522 2.3245C18.771 2.38 19.4323 2.5845 19.8735 2.7545C20.4572 2.9807 20.8736 3.2523 21.3115 3.6895C21.7492 4.1267 22.0193 4.5437 22.2465 5.1273C22.4181 5.5673 22.6212 6.2299 22.6765 7.4486C22.7372 8.7673 22.7492 9.162 22.7492 12.5001C22.7492 15.8382 22.7372 16.2329 22.6765 17.5516C22.621 18.7702 22.417 19.4328 22.2465 19.8729C22.0193 20.4565 21.7486 20.8729 21.3115 21.3097C20.8742 21.7465 20.4572 22.0175 19.8735 22.2447C19.4335 22.4162 18.771 22.6192 17.5522 22.6747C16.2345 22.7352 15.8388 22.7474 12.5005 22.7474C9.16227 22.7474 8.76755 22.7352 7.4503 22.6747ZM7.34679 0.0757C6.01604 0.1363 5.1067 0.3473 4.31257 0.6563C3.49014 0.9754 2.79391 1.4035 2.09818 2.0981C1.40246 2.7927 0.975439 3.49 0.656326 4.3124C0.347314 5.107 0.136305 6.0158 0.075703 7.3465C0.0141006 8.6793 0 9.1054 0 12.5C0 15.8946 0.0141006 16.3208 0.075703 17.6535C0.136305 18.9843 0.347314 19.893 0.656326 20.6876C0.975439 21.5095 1.40256 22.2076 2.09818 22.9019C2.79381 23.5963 3.49014 24.0237 4.31257 24.3438C5.1082 24.6527 6.01604 24.8637 7.34679 24.9242C8.68035 24.9849 9.10576 25 12.5005 25C15.8953 25 16.3214 24.9859 17.6542 24.9242C18.985 24.8637 19.8938 24.6527 20.6885 24.3438C21.5104 24.0237 22.2071 23.5965 22.9028 22.9019C23.5986 22.2073 24.0247 21.5095 24.3447 20.6876C24.6537 19.893 24.8657 18.9843 24.9252 17.6535C24.9859 16.3198 25 15.8946 25 12.5C25 9.1054 24.9859 8.6793 24.9252 7.3465C24.8647 6.0157 24.6537 5.1065 24.3447 4.3124C24.0247 3.4905 23.5974 2.7938 22.9028 2.0981C22.2081 1.4024 21.5104 0.9754 20.6895 0.6563C19.8938 0.3473 18.985 0.1353 17.6552 0.0757C16.3224 0.0151 15.8963 0 12.5015 0C9.10676 0 8.68035 0.0141 7.34679 0.0757Z" fill="black"/>
</svg>
