<svg width="25" height="25" viewBox="0 0 25 25" fill="none" xmlns="http://www.w3.org/2000/svg">
<path d="M23.2525 0H1.82293C0.810198 0 0 0.806458 0 1.81451V23.1854C0 24.1532 0.810198 25 1.82293 25H23.1715C24.1843 25 24.9944 24.1936 24.9944 23.1854V1.77419C25.0755 0.806458 24.2652 0 23.2525 0ZM7.41327 21.25H3.7269V9.35483H7.41327V21.25ZM5.54982 7.70161C4.33455 7.70161 3.4028 6.73388 3.4028 5.56451C3.4028 4.39517 4.37505 3.42742 5.54982 3.42742C6.72461 3.42742 7.69683 4.39517 7.69683 5.56451C7.69683 6.73388 6.80562 7.70161 5.54982 7.70161ZM21.389 21.25H17.7027V15.4839C17.7027 14.1129 17.6622 12.2983 15.7583 12.2983C13.8138 12.2983 13.5302 13.8307 13.5302 15.3629V21.25H9.84378V9.35483H13.4492V11.0081H13.4896C14.0164 10.0403 15.1911 9.07258 17.0141 9.07258C20.7815 9.07258 21.4701 11.4919 21.4701 14.7983V21.25H21.389Z" fill="black"/>
</svg>
